<svg xml:space="preserve" viewBox="311.03999999999996 455.76 494.64000000000004 183.60000000000002" version="1.1" xmlns:xlink="http://www.w3.org/1999/xlink" xmlns="http://www.w3.org/2000/svg" style="max-height: 500px" width="494.64000000000004" height="183.60000000000002">
<desc>Created with Fabric.js 5.2.4</desc>
<defs>
</defs>
<rect fill="transparent" height="100%" width="100%" y="0" x="0"/>
<g id="099ec577-2057-4e17-b731-625bbe6dc5fa" transform="matrix(1 0 0 1 540 540)">
<rect height="1080" width="1080" ry="0" rx="0" y="-540" x="-540" style="stroke: none; stroke-width: 1; stroke-dasharray: none; stroke-linecap: butt; stroke-dashoffset: 0; stroke-linejoin: miter; stroke-miterlimit: 4; fill: rgb(255,255,255); fill-rule: nonzero; opacity: 1; visibility: hidden;"/>
</g>
<g id="4e5d3a54-1cbf-43af-b8f7-f7b97c2fa4aa" transform="matrix(1 0 0 1 540 540)">
</g>
<g transform="matrix(-0.97 -0.97 0.71 -0.71 598.37 553.28)">
<g style="">
		<g transform="matrix(1 0 0 1 -35 8.08)">
<line y2="0" x2="15" y1="0" x1="-15" style="stroke: rgb(0,0,0); stroke-width: 2; stroke-dasharray: none; stroke-linecap: square; stroke-dashoffset: 0; stroke-linejoin: miter; stroke-miterlimit: 4; fill: rgb(0,0,0); fill-rule: nonzero; opacity: 1;"/>
</g>
		<g transform="matrix(1 0 0 1 35 8.08)">
<line y2="0" x2="15" y1="0" x1="-15" style="stroke: rgb(0,0,0); stroke-width: 2; stroke-dasharray: none; stroke-linecap: square; stroke-dashoffset: 0; stroke-linejoin: miter; stroke-miterlimit: 4; fill: rgb(0,0,0); fill-rule: nonzero; opacity: 1;"/>
</g>
		<g transform="matrix(1 0 0 1 0 8.08)">
<path stroke-linecap="round" d="M 50 60 L 52 60 L 55 53 L 61 67 L 67 53 L 73 67 L 79 53 L 85 67 L 88 60 L 90 60" transform="translate(-70, -60)" style="stroke: rgb(0,0,0); stroke-width: 2; stroke-dasharray: none; stroke-linecap: square; stroke-dashoffset: 0; stroke-linejoin: miter; stroke-miterlimit: 4; fill: rgb(0,0,0); fill-opacity: 0; fill-rule: nonzero; opacity: 1;"/>
</g>
		<g style="" transform="matrix(1 0 0 1 0 -9.37)">
		<text style="stroke: none; stroke-width: 1; stroke-dasharray: none; stroke-linecap: butt; stroke-dashoffset: 0; stroke-linejoin: miter; stroke-miterlimit: 4; fill: rgb(0,0,0); fill-rule: nonzero; opacity: 1; white-space: pre;" font-weight="normal" font-style="normal" font-size="11" font-family="Arial" xml:space="preserve"><tspan y="3.46" x="-11.87">20 Ω</tspan></text>
</g>
</g>
</g>
<g transform="matrix(-0.99 -0.99 0.71 -0.71 697.3 553.28)">
<g style="">
		<g transform="matrix(1 0 0 1 -35 8.08)">
<line y2="0" x2="15" y1="0" x1="-15" style="stroke: rgb(0,0,0); stroke-width: 2; stroke-dasharray: none; stroke-linecap: square; stroke-dashoffset: 0; stroke-linejoin: miter; stroke-miterlimit: 4; fill: rgb(0,0,0); fill-rule: nonzero; opacity: 1;"/>
</g>
		<g transform="matrix(1 0 0 1 35 8.08)">
<line y2="0" x2="15" y1="0" x1="-15" style="stroke: rgb(0,0,0); stroke-width: 2; stroke-dasharray: none; stroke-linecap: square; stroke-dashoffset: 0; stroke-linejoin: miter; stroke-miterlimit: 4; fill: rgb(0,0,0); fill-rule: nonzero; opacity: 1;"/>
</g>
		<g transform="matrix(1 0 0 1 0 8.08)">
<path stroke-linecap="round" d="M 50 60 L 52 60 L 55 53 L 61 67 L 67 53 L 73 67 L 79 53 L 85 67 L 88 60 L 90 60" transform="translate(-70, -60)" style="stroke: rgb(0,0,0); stroke-width: 2; stroke-dasharray: none; stroke-linecap: square; stroke-dashoffset: 0; stroke-linejoin: miter; stroke-miterlimit: 4; fill: rgb(0,0,0); fill-opacity: 0; fill-rule: nonzero; opacity: 1;"/>
</g>
		<g style="" transform="matrix(1 0 0 1 0 -9.36)">
		<text style="stroke: none; stroke-width: 1; stroke-dasharray: none; stroke-linecap: butt; stroke-dashoffset: 0; stroke-linejoin: miter; stroke-miterlimit: 4; fill: rgb(0,0,0); fill-rule: nonzero; opacity: 1; white-space: pre;" font-weight="normal" font-style="normal" font-size="11" font-family="Arial" xml:space="preserve"><tspan y="3.46" x="-11.87">20 Ω</tspan></text>
</g>
</g>
</g>
<g transform="matrix(1 0 0 1 540 540)">
<g style="">
		<g transform="matrix(1 0 0 1 112.06 -28.42)">
<line y2="15" x2="0" y1="-15" x1="0" style="stroke: rgb(0,0,0); stroke-width: 2; stroke-dasharray: none; stroke-linecap: square; stroke-dashoffset: 0; stroke-linejoin: miter; stroke-miterlimit: 4; fill: rgb(0,0,0); fill-rule: nonzero; opacity: 1;"/>
</g>
		<g transform="matrix(1 0 0 1 112.06 41.58)">
<line y2="15" x2="0" y1="-15" x1="0" style="stroke: rgb(0,0,0); stroke-width: 2; stroke-dasharray: none; stroke-linecap: square; stroke-dashoffset: 0; stroke-linejoin: miter; stroke-miterlimit: 4; fill: rgb(0,0,0); fill-rule: nonzero; opacity: 1;"/>
</g>
		<g transform="matrix(1 0 0 1 112.06 6.58)">
<path stroke-linecap="round" d="M 360 90 L 360 92 L 353 95 L 367 101 L 353 107 L 367 113 L 353 119 L 367 125 L 360 128 L 360 130" transform="translate(-360, -110)" style="stroke: rgb(0,0,0); stroke-width: 2; stroke-dasharray: none; stroke-linecap: square; stroke-dashoffset: 0; stroke-linejoin: miter; stroke-miterlimit: 4; fill: rgb(0,0,0); fill-opacity: 0; fill-rule: nonzero; opacity: 1;"/>
</g>
		<g style="" transform="matrix(1 0 0 1 86.19 3.13)">
		<text style="stroke: none; stroke-width: 1; stroke-dasharray: none; stroke-linecap: butt; stroke-dashoffset: 0; stroke-linejoin: miter; stroke-miterlimit: 4; fill: rgb(0,0,0); fill-rule: nonzero; opacity: 1; white-space: pre;" font-weight="normal" font-style="normal" font-size="11" font-family="Arial" xml:space="preserve"><tspan y="3.46" x="-11.87">20 Ω</tspan></text>
</g>
		<g transform="matrix(1 0 0 1 127.06 56.58)">
<line y2="0" x2="15" y1="0" x1="-15" style="stroke: rgb(0,0,0); stroke-width: 2; stroke-dasharray: none; stroke-linecap: square; stroke-dashoffset: 0; stroke-linejoin: miter; stroke-miterlimit: 4; fill: rgb(0,0,0); fill-rule: nonzero; opacity: 1;"/>
</g>
		<g transform="matrix(1 0 0 1 197.06 56.58)">
<line y2="0" x2="15" y1="0" x1="-15" style="stroke: rgb(0,0,0); stroke-width: 2; stroke-dasharray: none; stroke-linecap: square; stroke-dashoffset: 0; stroke-linejoin: miter; stroke-miterlimit: 4; fill: rgb(0,0,0); fill-rule: nonzero; opacity: 1;"/>
</g>
		<g transform="matrix(1 0 0 1 162.06 56.58)">
<path stroke-linecap="round" d="M 390 160 L 392 160 L 395 153 L 401 167 L 407 153 L 413 167 L 419 153 L 425 167 L 428 160 L 430 160" transform="translate(-410, -160)" style="stroke: rgb(0,0,0); stroke-width: 2; stroke-dasharray: none; stroke-linecap: square; stroke-dashoffset: 0; stroke-linejoin: miter; stroke-miterlimit: 4; fill: rgb(0,0,0); fill-opacity: 0; fill-rule: nonzero; opacity: 1;"/>
</g>
		<g style="" transform="matrix(1 0 0 1 162.06 39.13)">
		<text style="stroke: none; stroke-width: 1; stroke-dasharray: none; stroke-linecap: butt; stroke-dashoffset: 0; stroke-linejoin: miter; stroke-miterlimit: 4; fill: rgb(0,0,0); fill-rule: nonzero; opacity: 1; white-space: pre;" font-weight="normal" font-style="normal" font-size="11" font-family="Arial" xml:space="preserve"><tspan y="3.46" x="-11.87">10 Ω</tspan></text>
</g>
		<g transform="matrix(1 0 0 1 27.06 56.58)">
<line y2="0" x2="15" y1="0" x1="-15" style="stroke: rgb(0,0,0); stroke-width: 2; stroke-dasharray: none; stroke-linecap: square; stroke-dashoffset: 0; stroke-linejoin: miter; stroke-miterlimit: 4; fill: rgb(0,0,0); fill-rule: nonzero; opacity: 1;"/>
</g>
		<g transform="matrix(1 0 0 1 97.06 56.58)">
<line y2="0" x2="15" y1="0" x1="-15" style="stroke: rgb(0,0,0); stroke-width: 2; stroke-dasharray: none; stroke-linecap: square; stroke-dashoffset: 0; stroke-linejoin: miter; stroke-miterlimit: 4; fill: rgb(0,0,0); fill-rule: nonzero; opacity: 1;"/>
</g>
		<g transform="matrix(1 0 0 1 62.06 56.58)">
<path stroke-linecap="round" d="M 290 160 L 292 160 L 295 153 L 301 167 L 307 153 L 313 167 L 319 153 L 325 167 L 328 160 L 330 160" transform="translate(-310, -160)" style="stroke: rgb(0,0,0); stroke-width: 2; stroke-dasharray: none; stroke-linecap: square; stroke-dashoffset: 0; stroke-linejoin: miter; stroke-miterlimit: 4; fill: rgb(0,0,0); fill-opacity: 0; fill-rule: nonzero; opacity: 1;"/>
</g>
		<g style="" transform="matrix(1 0 0 1 62.06 39.13)">
		<text style="stroke: none; stroke-width: 1; stroke-dasharray: none; stroke-linecap: butt; stroke-dashoffset: 0; stroke-linejoin: miter; stroke-miterlimit: 4; fill: rgb(0,0,0); fill-rule: nonzero; opacity: 1; white-space: pre;" font-weight="normal" font-style="normal" font-size="11" font-family="Arial" xml:space="preserve"><tspan y="3.46" x="-11.87">10 Ω</tspan></text>
</g>
		<g transform="matrix(1 0 0 1 212.06 -28.42)">
<line y2="15" x2="0" y1="-15" x1="0" style="stroke: rgb(0,0,0); stroke-width: 2; stroke-dasharray: none; stroke-linecap: square; stroke-dashoffset: 0; stroke-linejoin: miter; stroke-miterlimit: 4; fill: rgb(0,0,0); fill-rule: nonzero; opacity: 1;"/>
</g>
		<g transform="matrix(1 0 0 1 212.06 41.58)">
<line y2="15" x2="0" y1="-15" x1="0" style="stroke: rgb(0,0,0); stroke-width: 2; stroke-dasharray: none; stroke-linecap: square; stroke-dashoffset: 0; stroke-linejoin: miter; stroke-miterlimit: 4; fill: rgb(0,0,0); fill-rule: nonzero; opacity: 1;"/>
</g>
		<g transform="matrix(1 0 0 1 212.06 6.58)">
<path stroke-linecap="round" d="M 460 90 L 460 92 L 453 95 L 467 101 L 453 107 L 467 113 L 453 119 L 467 125 L 460 128 L 460 130" transform="translate(-460, -110)" style="stroke: rgb(0,0,0); stroke-width: 2; stroke-dasharray: none; stroke-linecap: square; stroke-dashoffset: 0; stroke-linejoin: miter; stroke-miterlimit: 4; fill: rgb(0,0,0); fill-opacity: 0; fill-rule: nonzero; opacity: 1;"/>
</g>
		<g style="" transform="matrix(1 0 0 1 186.19 3.13)">
		<text style="stroke: none; stroke-width: 1; stroke-dasharray: none; stroke-linecap: butt; stroke-dashoffset: 0; stroke-linejoin: miter; stroke-miterlimit: 4; fill: rgb(0,0,0); fill-rule: nonzero; opacity: 1; white-space: pre;" font-weight="normal" font-style="normal" font-size="11" font-family="Arial" xml:space="preserve"><tspan y="3.46" x="-11.87">10 Ω</tspan></text>
</g>
		<g transform="matrix(1 0 0 1 127.06 -43.42)">
<line y2="0" x2="15" y1="0" x1="-15" style="stroke: rgb(0,0,0); stroke-width: 2; stroke-dasharray: none; stroke-linecap: square; stroke-dashoffset: 0; stroke-linejoin: miter; stroke-miterlimit: 4; fill: rgb(0,0,0); fill-rule: nonzero; opacity: 1;"/>
</g>
		<g transform="matrix(1 0 0 1 197.06 -43.42)">
<line y2="0" x2="15" y1="0" x1="-15" style="stroke: rgb(0,0,0); stroke-width: 2; stroke-dasharray: none; stroke-linecap: square; stroke-dashoffset: 0; stroke-linejoin: miter; stroke-miterlimit: 4; fill: rgb(0,0,0); fill-rule: nonzero; opacity: 1;"/>
</g>
		<g transform="matrix(1 0 0 1 162.06 -43.42)">
<path stroke-linecap="round" d="M 390 60 L 392 60 L 395 53 L 401 67 L 407 53 L 413 67 L 419 53 L 425 67 L 428 60 L 430 60" transform="translate(-410, -60)" style="stroke: rgb(0,0,0); stroke-width: 2; stroke-dasharray: none; stroke-linecap: square; stroke-dashoffset: 0; stroke-linejoin: miter; stroke-miterlimit: 4; fill: rgb(0,0,0); fill-opacity: 0; fill-rule: nonzero; opacity: 1;"/>
</g>
		<g style="" transform="matrix(1 0 0 1 162.06 -60.87)">
		<text style="stroke: none; stroke-width: 1; stroke-dasharray: none; stroke-linecap: butt; stroke-dashoffset: 0; stroke-linejoin: miter; stroke-miterlimit: 4; fill: rgb(0,0,0); fill-rule: nonzero; opacity: 1; white-space: pre;" font-weight="normal" font-style="normal" font-size="11" font-family="Arial" xml:space="preserve"><tspan y="3.46" x="-11.87">10 Ω</tspan></text>
</g>
		<g transform="matrix(1 0 0 1 27.06 -43.42)">
<line y2="0" x2="15" y1="0" x1="-15" style="stroke: rgb(0,0,0); stroke-width: 2; stroke-dasharray: none; stroke-linecap: square; stroke-dashoffset: 0; stroke-linejoin: miter; stroke-miterlimit: 4; fill: rgb(0,0,0); fill-rule: nonzero; opacity: 1;"/>
</g>
		<g transform="matrix(1 0 0 1 97.06 -43.42)">
<line y2="0" x2="15" y1="0" x1="-15" style="stroke: rgb(0,0,0); stroke-width: 2; stroke-dasharray: none; stroke-linecap: square; stroke-dashoffset: 0; stroke-linejoin: miter; stroke-miterlimit: 4; fill: rgb(0,0,0); fill-rule: nonzero; opacity: 1;"/>
</g>
		<g transform="matrix(1 0 0 1 62.06 -43.42)">
<path stroke-linecap="round" d="M 290 60 L 292 60 L 295 53 L 301 67 L 307 53 L 313 67 L 319 53 L 325 67 L 328 60 L 330 60" transform="translate(-310, -60)" style="stroke: rgb(0,0,0); stroke-width: 2; stroke-dasharray: none; stroke-linecap: square; stroke-dashoffset: 0; stroke-linejoin: miter; stroke-miterlimit: 4; fill: rgb(0,0,0); fill-opacity: 0; fill-rule: nonzero; opacity: 1;"/>
</g>
		<g style="" transform="matrix(1 0 0 1 62.06 -60.87)">
		<text style="stroke: none; stroke-width: 1; stroke-dasharray: none; stroke-linecap: butt; stroke-dashoffset: 0; stroke-linejoin: miter; stroke-miterlimit: 4; fill: rgb(0,0,0); fill-rule: nonzero; opacity: 1; white-space: pre;" font-weight="normal" font-style="normal" font-size="11" font-family="Arial" xml:space="preserve"><tspan y="3.46" x="-11.87">10 Ω</tspan></text>
</g>
		<g transform="matrix(1 0 0 1 12.06 -28.42)">
<line y2="15" x2="0" y1="-15" x1="0" style="stroke: rgb(0,0,0); stroke-width: 2; stroke-dasharray: none; stroke-linecap: square; stroke-dashoffset: 0; stroke-linejoin: miter; stroke-miterlimit: 4; fill: rgb(0,0,0); fill-rule: nonzero; opacity: 1;"/>
</g>
		<g transform="matrix(1 0 0 1 12.06 41.58)">
<line y2="15" x2="0" y1="-15" x1="0" style="stroke: rgb(0,0,0); stroke-width: 2; stroke-dasharray: none; stroke-linecap: square; stroke-dashoffset: 0; stroke-linejoin: miter; stroke-miterlimit: 4; fill: rgb(0,0,0); fill-rule: nonzero; opacity: 1;"/>
</g>
		<g transform="matrix(1 0 0 1 12.06 6.58)">
<path stroke-linecap="round" d="M 260 90 L 260 92 L 253 95 L 267 101 L 253 107 L 267 113 L 253 119 L 267 125 L 260 128 L 260 130" transform="translate(-260, -110)" style="stroke: rgb(0,0,0); stroke-width: 2; stroke-dasharray: none; stroke-linecap: square; stroke-dashoffset: 0; stroke-linejoin: miter; stroke-miterlimit: 4; fill: rgb(0,0,0); fill-opacity: 0; fill-rule: nonzero; opacity: 1;"/>
</g>
		<g style="" transform="matrix(1 0 0 1 -13.81 3.13)">
		<text style="stroke: none; stroke-width: 1; stroke-dasharray: none; stroke-linecap: butt; stroke-dashoffset: 0; stroke-linejoin: miter; stroke-miterlimit: 4; fill: rgb(0,0,0); fill-rule: nonzero; opacity: 1; white-space: pre;" font-weight="normal" font-style="normal" font-size="11" font-family="Arial" xml:space="preserve"><tspan y="3.46" x="-11.87">20 Ω</tspan></text>
</g>
		<g transform="matrix(1 0 0 1 -67.44 56.58)">
<line y2="0" x2="20.5" y1="0" x1="-20.5" style="stroke: rgb(0,0,0); stroke-width: 2; stroke-dasharray: none; stroke-linecap: square; stroke-dashoffset: 0; stroke-linejoin: miter; stroke-miterlimit: 4; fill: rgb(0,0,0); fill-rule: nonzero; opacity: 1;"/>
</g>
		<g transform="matrix(1 0 0 1 -46.94 56.58)">
<line y2="10" x2="0" y1="-10" x1="0" style="stroke: rgb(0,0,0); stroke-width: 2; stroke-dasharray: none; stroke-linecap: square; stroke-dashoffset: 0; stroke-linejoin: miter; stroke-miterlimit: 4; fill: rgb(0,0,0); fill-rule: nonzero; opacity: 1;"/>
</g>
		<g transform="matrix(1 0 0 1 -40.94 56.58)">
<line y2="5" x2="0" y1="-5" x1="0" style="stroke: rgb(0,0,0); stroke-width: 2; stroke-dasharray: none; stroke-linecap: square; stroke-dashoffset: 0; stroke-linejoin: miter; stroke-miterlimit: 4; fill: rgb(0,0,0); fill-rule: nonzero; opacity: 1;"/>
</g>
		<g transform="matrix(1 0 0 1 -34.94 56.58)">
<line y2="10" x2="0" y1="-10" x1="0" style="stroke: rgb(0,0,0); stroke-width: 2; stroke-dasharray: none; stroke-linecap: square; stroke-dashoffset: 0; stroke-linejoin: miter; stroke-miterlimit: 4; fill: rgb(0,0,0); fill-rule: nonzero; opacity: 1;"/>
</g>
		<g transform="matrix(1 0 0 1 -28.94 56.58)">
<line y2="5" x2="0" y1="-5" x1="0" style="stroke: rgb(0,0,0); stroke-width: 2; stroke-dasharray: none; stroke-linecap: square; stroke-dashoffset: 0; stroke-linejoin: miter; stroke-miterlimit: 4; fill: rgb(0,0,0); fill-rule: nonzero; opacity: 1;"/>
</g>
		<g transform="matrix(1 0 0 1 -8.44 56.58)">
<line y2="0" x2="20.5" y1="0" x1="-20.5" style="stroke: rgb(0,0,0); stroke-width: 2; stroke-dasharray: none; stroke-linecap: square; stroke-dashoffset: 0; stroke-linejoin: miter; stroke-miterlimit: 4; fill: rgb(0,0,0); fill-rule: nonzero; opacity: 1;"/>
</g>
		<g style="" transform="matrix(1 0 0 1 -37.94 40.82)">
		<text style="stroke: none; stroke-width: 1; stroke-dasharray: none; stroke-linecap: butt; stroke-dashoffset: 0; stroke-linejoin: miter; stroke-miterlimit: 4; fill: rgb(0,0,0); fill-rule: nonzero; opacity: 1; white-space: pre;" font-weight="normal" font-style="normal" font-size="12" font-family="Arial" xml:space="preserve"><tspan y="3.77" x="-17.52">+120V</tspan></text>
</g>
		<g transform="matrix(1 0 0 1 -147.94 -43.42)">
<line y2="0" x2="40" y1="0" x1="-40" style="stroke: rgb(0,0,0); stroke-width: 2; stroke-dasharray: none; stroke-linecap: square; stroke-dashoffset: 0; stroke-linejoin: miter; stroke-miterlimit: 4; fill: rgb(0,0,0); fill-rule: nonzero; opacity: 1;"/>
</g>
		<g transform="matrix(1 0 0 1 -27.94 -43.42)">
<line y2="0" x2="40" y1="0" x1="-40" style="stroke: rgb(0,0,0); stroke-width: 2; stroke-dasharray: none; stroke-linecap: square; stroke-dashoffset: 0; stroke-linejoin: miter; stroke-miterlimit: 4; fill: rgb(0,0,0); fill-rule: nonzero; opacity: 1;"/>
</g>
		<g transform="matrix(1 0 0 1 -87.94 -43.42)">
<path stroke-linecap="round" d="M 140 60 L 142 60 L 145 53 L 151 67 L 157 53 L 163 67 L 169 53 L 175 67 L 178 60 L 180 60" transform="translate(-160, -60)" style="stroke: rgb(0,0,0); stroke-width: 2; stroke-dasharray: none; stroke-linecap: square; stroke-dashoffset: 0; stroke-linejoin: miter; stroke-miterlimit: 4; fill: rgb(0,0,0); fill-opacity: 0; fill-rule: nonzero; opacity: 1;"/>
</g>
		<g style="" transform="matrix(1 0 0 1 -87.94 -60.87)">
		<text style="stroke: none; stroke-width: 1; stroke-dasharray: none; stroke-linecap: butt; stroke-dashoffset: 0; stroke-linejoin: miter; stroke-miterlimit: 4; fill: rgb(0,0,0); fill-rule: nonzero; opacity: 1; white-space: pre;" font-weight="normal" font-style="normal" font-size="11" font-family="Arial" xml:space="preserve"><tspan y="3.46" x="-8.81">2 Ω</tspan></text>
</g>
		<g transform="matrix(1 0 0 1 -187.94 -28.42)">
<line y2="15" x2="0" y1="-15" x1="0" style="stroke: rgb(0,0,0); stroke-width: 2; stroke-dasharray: none; stroke-linecap: square; stroke-dashoffset: 0; stroke-linejoin: miter; stroke-miterlimit: 4; fill: rgb(0,0,0); fill-rule: nonzero; opacity: 1;"/>
</g>
		<g transform="matrix(1 0 0 1 -187.94 41.58)">
<line y2="15" x2="0" y1="-15" x1="0" style="stroke: rgb(0,0,0); stroke-width: 2; stroke-dasharray: none; stroke-linecap: square; stroke-dashoffset: 0; stroke-linejoin: miter; stroke-miterlimit: 4; fill: rgb(0,0,0); fill-rule: nonzero; opacity: 1;"/>
</g>
		<g transform="matrix(1 0 0 1 -187.94 6.58)">
<path stroke-linecap="round" d="M 60 90 L 60 92 L 53 95 L 67 101 L 53 107 L 67 113 L 53 119 L 67 125 L 60 128 L 60 130" transform="translate(-60, -110)" style="stroke: rgb(0,0,0); stroke-width: 2; stroke-dasharray: none; stroke-linecap: square; stroke-dashoffset: 0; stroke-linejoin: miter; stroke-miterlimit: 4; fill: rgb(0,0,0); fill-opacity: 0; fill-rule: nonzero; opacity: 1;"/>
</g>
		<g style="" transform="matrix(1 0 0 1 -210.75 3.13)">
		<text style="stroke: none; stroke-width: 1; stroke-dasharray: none; stroke-linecap: butt; stroke-dashoffset: 0; stroke-linejoin: miter; stroke-miterlimit: 4; fill: rgb(0,0,0); fill-rule: nonzero; opacity: 1; white-space: pre;" font-weight="normal" font-style="normal" font-size="11" font-family="Arial" xml:space="preserve"><tspan y="3.46" x="-8.81">6 Ω</tspan></text>
</g>
		<g transform="matrix(1 0 0 1 -172.94 56.58)">
<line y2="0" x2="15" y1="0" x1="-15" style="stroke: rgb(0,0,0); stroke-width: 2; stroke-dasharray: none; stroke-linecap: square; stroke-dashoffset: 0; stroke-linejoin: miter; stroke-miterlimit: 4; fill: rgb(0,0,0); fill-rule: nonzero; opacity: 1;"/>
</g>
		<g transform="matrix(1 0 0 1 -102.94 56.58)">
<line y2="0" x2="15" y1="0" x1="-15" style="stroke: rgb(0,0,0); stroke-width: 2; stroke-dasharray: none; stroke-linecap: square; stroke-dashoffset: 0; stroke-linejoin: miter; stroke-miterlimit: 4; fill: rgb(0,0,0); fill-rule: nonzero; opacity: 1;"/>
</g>
		<g transform="matrix(1 0 0 1 -137.94 56.58)">
<path stroke-linecap="round" d="M 90 160 L 92 160 L 95 153 L 101 167 L 107 153 L 113 167 L 119 153 L 125 167 L 128 160 L 130 160" transform="translate(-110, -160)" style="stroke: rgb(0,0,0); stroke-width: 2; stroke-dasharray: none; stroke-linecap: square; stroke-dashoffset: 0; stroke-linejoin: miter; stroke-miterlimit: 4; fill: rgb(0,0,0); fill-opacity: 0; fill-rule: nonzero; opacity: 1;"/>
</g>
		<g style="" transform="matrix(1 0 0 1 -137.94 39.13)">
		<text style="stroke: none; stroke-width: 1; stroke-dasharray: none; stroke-linecap: butt; stroke-dashoffset: 0; stroke-linejoin: miter; stroke-miterlimit: 4; fill: rgb(0,0,0); fill-rule: nonzero; opacity: 1; white-space: pre;" font-weight="normal" font-style="normal" font-size="11" font-family="Arial" xml:space="preserve"><tspan y="3.46" x="-8.81">2 Ω</tspan></text>
</g>
		<g transform="matrix(1 0 0 1 112.06 -43.42)">
<ellipse ry="2" rx="2" cy="0" cx="0" style="stroke: rgb(0,0,0); stroke-width: 2; stroke-dasharray: none; stroke-linecap: butt; stroke-dashoffset: 0; stroke-linejoin: miter; stroke-miterlimit: 4; fill: rgb(0,0,0); fill-rule: nonzero; opacity: 1;"/>
</g>
		<g transform="matrix(1 0 0 1 112.06 56.58)">
<ellipse ry="2" rx="2" cy="0" cx="0" style="stroke: rgb(0,0,0); stroke-width: 2; stroke-dasharray: none; stroke-linecap: butt; stroke-dashoffset: 0; stroke-linejoin: miter; stroke-miterlimit: 4; fill: rgb(0,0,0); fill-rule: nonzero; opacity: 1;"/>
</g>
		<g transform="matrix(1 0 0 1 12.06 56.58)">
<ellipse ry="2" rx="2" cy="0" cx="0" style="stroke: rgb(0,0,0); stroke-width: 2; stroke-dasharray: none; stroke-linecap: butt; stroke-dashoffset: 0; stroke-linejoin: miter; stroke-miterlimit: 4; fill: rgb(0,0,0); fill-rule: nonzero; opacity: 1;"/>
</g>
		<g transform="matrix(1 0 0 1 12.06 -43.42)">
<ellipse ry="2" rx="2" cy="0" cx="0" style="stroke: rgb(0,0,0); stroke-width: 2; stroke-dasharray: none; stroke-linecap: butt; stroke-dashoffset: 0; stroke-linejoin: miter; stroke-miterlimit: 4; fill: rgb(0,0,0); fill-rule: nonzero; opacity: 1;"/>
</g>
</g>
</g>
</svg>
